<svg xmlns="http://www.w3.org/2000/svg" version="1.1" xmlns:xlink="http://www.w3.org/1999/xlink" xmlns:svgjs="http://svgjs.dev/svgjs" width="1440" height="560" preserveAspectRatio="none" viewBox="0 0 1440 560"><g mask="url(&quot;#SvgjsMask1695&quot;)" fill="none"><rect width="1440" height="560" x="0" y="0" fill="rgba(0, 0, 0, 1)"></rect><circle r="5.13" cx="611.61" cy="170.2" filter="url(#SvgjsFilter1696)" fill="rgba(147, 126, 39, 1)"></circle><circle r="8.155" cx="370.715" cy="170.995" filter="url(#SvgjsFilter1696)" fill="rgba(21, 139, 213, 1)"></circle><circle r="7.27" cx="1332.3" cy="127.64" filter="url(#SvgjsFilter1696)" fill="rgba(147, 86, 39, 1)"></circle><circle r="8.09" cx="1019.61" cy="183.39000000000001" filter="url(#SvgjsFilter1696)" fill="rgba(21, 139, 213, 1)"></circle><circle r="5.79" cx="1001.9399999999999" cy="488.69" filter="url(#SvgjsFilter1696)" fill="rgba(147, 126, 39, 1)"></circle><circle r="7.815" cx="618.825" cy="545.2850000000001" filter="url(#SvgjsFilter1696)" fill="rgba(147, 86, 39, 1)"></circle><circle r="9.055" cx="681.4449999999999" cy="278.885" filter="url(#SvgjsFilter1696)" fill="rgba(39, 147, 87, 1)"></circle><circle r="9.295" cx="585.615" cy="287.925" filter="url(#SvgjsFilter1696)" fill="rgba(147, 126, 39, 1)"></circle><circle r="9.24" cx="1351.03" cy="456.83" filter="url(#SvgjsFilter1696)" fill="rgba(21, 139, 213, 1)"></circle><circle r="6.31" cx="453.93" cy="121.66" filter="url(#SvgjsFilter1696)" fill="rgba(147, 126, 39, 1)"></circle><circle r="9.3" cx="38.620000000000005" cy="277.04" filter="url(#SvgjsFilter1696)" fill="rgba(39, 147, 87, 1)"></circle><circle r="9.03" cx="416.53999999999996" cy="459.59999999999997" filter="url(#SvgjsFilter1696)" fill="rgba(21, 139, 213, 1)"></circle><circle r="5.085" cx="198.685" cy="216.835" filter="url(#SvgjsFilter1696)" fill="rgba(21, 139, 213, 1)"></circle><circle r="9.25" cx="659.56" cy="438.03" filter="url(#SvgjsFilter1696)" fill="rgba(39, 147, 87, 1)"></circle><circle r="4.86" cx="530.27" cy="507.07" filter="url(#SvgjsFilter1696)" fill="rgba(147, 86, 39, 1)"></circle><circle r="7.805" cx="238.01500000000001" cy="105.08500000000001" filter="url(#SvgjsFilter1696)" fill="rgba(39, 147, 87, 1)"></circle><circle r="7.845" cx="757.025" cy="229.885" filter="url(#SvgjsFilter1696)" fill="rgba(21, 139, 213, 1)"></circle><circle r="7.09" cx="1265.59" cy="33.7" filter="url(#SvgjsFilter1696)" fill="rgba(147, 126, 39, 1)"></circle><circle r="9.13" cx="303.75" cy="508.9" filter="url(#SvgjsFilter1696)" fill="rgba(147, 86, 39, 1)"></circle><circle r="6.16" cx="676.93" cy="206.98" filter="url(#SvgjsFilter1696)" fill="rgba(147, 126, 39, 1)"></circle><path d="M1439.7 480.5L1408.5 469.4 1404.4 461.3 1415.9 444.4 1425.2 445 1446.7 470.3C1447 470.5 1447 470.5 1447.4 470.7 1448 471.2 1448.9 471.3 1449.9 470.5 1450.6 469.5 1450.7 468.7 1449.9 467.6L1431.1 445.6 1445.4 446.6 1453.8 456.3C1453.8 456.3 1454.2 456.5 1454.2 456.5 1454.8 456.9 1455.7 457.1 1456.7 456.3 1457.5 455.9 1457.5 454.4 1456.8 453.4L1451.5 446.9 1462 447.8C1462.9 447.9 1463.9 447.2 1464.3 445.9S1463.3 443.8 1462.1 443.5L1451.9 442.8 1458 437.3C1459.1 436.6 1459.1 435.1 1458.3 434.1 1457.6 433.7 1456.4 433.3 1455.4 434.1L1445.8 442.5 1431.2 441.3 1453.2 422.4C1454.2 421.7 1454.2 420.2 1453.8 419.4 1452.8 418.8 1451.6 418.4 1450.6 419.2L1425.6 440.9 1416 440.1 1407.4 422.1 1412.8 414.2 1445.3 407.8C1446.4 407.6 1447.1 406.6 1446.9 405.5S1445.7 403.7 1444.5 403.9L1416 409.6 1424.3 397.4 1436.5 395.1C1437.7 394.8 1438.3 393.9 1438.3 392.4S1437.1 390.6 1436 390.8L1427.5 392.7 1433.6 383.8C1434.2 382.8 1433.7 381.5 1432.7 380.8 1431.7 380.1 1430.6 380.3 1429.9 381.3L1423.8 390.3 1422.3 381.9C1422.3 380.5 1421.3 379.8 1420 380.3 1418.8 380.5 1418.2 381.5 1418.4 382.6L1420.7 394.9 1412.3 407.1 1407.2 378.4C1407 377.3 1405.7 376.4 1404.6 376.6S1402.8 377.8 1403 378.9L1409.2 411.7 1403.8 419.7 1383.6 418 1379.7 409.5 1390.8 378.4C1391.1 377.1 1390.4 376.1 1389.4 375.4 1388.2 375.1 1387.2 375.9 1386.5 376.9L1377 404.3 1370.8 391.3 1375.1 379.3C1375.5 378.1 1374.7 377.1 1373.7 376.4 1372.8 376.3 1371.5 376.8 1371.2 378L1368.3 385.8 1363.6 376.3C1363.2 375.5 1362 375.1 1360.9 375.4 1359.9 376.1 1359.5 377.3 1360 378.1L1364.6 387.6 1356.3 384.8C1355.4 384.7 1354.1 385.3 1354 386.2 1353.3 387.1 1353.7 387.9 1354.7 388.6 1354.7 388.6 1355.1 388.8 1355.1 388.8L1367.1 393.2 1373.3 406.1 1345.9 396.6C1344.7 396.3 1343.6 396.5 1343.2 397.7 1342.9 398.9 1343.3 399.7 1344 400.1 1344.3 400.4 1344.3 400.4 1344.3 400.4L1376 411.4 1379.9 419.8 1368.4 436.7 1359.3 435.8 1337.3 410.6C1336.9 409.8 1335.4 409.8 1334.6 410.2 1333.6 411 1333.6 412.4 1334.4 413.5L1353.2 435.5 1338.9 434.5 1330.5 424.8C1329.7 423.8 1328.5 423.5 1327.8 424.5 1326.8 425.2 1326.8 426.7 1327.2 427.5L1333 433.9 1322.5 433C1321.4 433.2 1320.4 433.9 1320.1 435.2 1320.2 435.7 1320.6 436.5 1321.3 436.9 1321.6 437.2 1321.6 437.2 1322.1 437.1L1332.7 438 1326.3 443.8C1325.3 444.5 1325.5 445.6 1325.9 446.4 1326.3 446.6 1326.3 446.6 1326.6 446.9 1327.2 447.3 1328.1 447.4 1328.9 447L1338.5 438.6 1352.8 439.6 1330.8 458.5C1330.1 459.5 1329.8 460.7 1330.7 461.3 1330.9 461.9 1330.9 461.9 1331.2 462.1 1331.8 462.6 1333 462.4 1333.7 461.9L1358.9 439.9 1368 440.8 1376.9 459 1371.7 466.6 1338.9 472.8C1337.8 473 1336.9 474.3 1337.1 475.4S1338.7 477.4 1339.8 477.2L1368.4 471.5 1360.2 483.4 1347.8 486.1C1346.7 486.3 1346 487.3 1346.2 488.4 1346.4 489.5 1347.4 490.2 1348.5 489.9L1356.9 488.4 1350.8 497.3C1350.3 497.9 1350.3 499.4 1351.3 500.1 1352.3 500.7 1354 500.4 1354.4 499.8L1360.5 490.8 1362.1 499.2C1362.2 499.7 1362.3 500.3 1362.6 500.5 1363.3 501 1363.8 500.9 1364.4 500.8 1365.5 500.6 1366.2 499.6 1366 498.5L1363.9 485.9 1372 474 1377.1 502.7C1377.2 503.2 1377.5 503.5 1378.2 503.9 1378.5 504.1 1378.9 504.4 1379.4 504.3 1380.5 504.1 1381.4 502.7 1381.2 501.6L1375.4 469 1380.6 461.4 1400.4 462.9 1404.9 471.3 1393.5 502.8C1393.4 503.6 1393.6 504.7 1394.3 505.2 1394.6 505.4 1394.6 505.4 1394.8 505.1 1395.8 505.8 1397.2 505.2 1397.5 504L1407 476.6 1413.5 489.8 1409.2 501.8C1409.1 502.7 1409.5 503.5 1410.2 503.9 1410.2 503.9 1410.5 504.2 1410.5 504.2 1411.5 504.8 1412.8 504.3 1413.2 503.1L1415.9 494.8 1420.6 504.3C1420.7 504.8 1421 505.1 1421.4 505.3 1422 505.7 1422.9 505.8 1423.1 505.5 1424.5 505 1424.8 503.8 1424.6 502.6L1419.9 493.2 1427.7 496C1428.9 496.4 1430.2 495.8 1430.6 494.6 1430.7 493.7 1430.1 492.4 1429.3 492.3L1417.2 487.9 1411 475 1438.4 484.5C1439.7 484.8 1440.7 484.1 1441.3 483.1 1441.5 482.2 1440.9 480.9 1439.7 480.5ZM1410.9 443.9L1402.1 456.8 1400.8 458.8 1398.5 458.6 1383.3 457.5 1380.6 457.1 1379.6 455 1373 441.3 1372 439.2 1373.4 437.2 1382.2 424.3 1383.5 422.3 1385.9 422.5 1401.1 423.6 1403.4 423.8 1404.7 426.1 1411.3 439.8 1412.3 441.9 1410.9 443.9Z" fill="rgba(39, 147, 87, 1)"></path><path d="M1160.2 578.4L1164.3 569.3 1168.4 574.7C1168.8 575.3 1169.8 575.5 1170.7 575.1 1171.3 574.4 1171.5 573.4 1171.1 572.8L1165.9 565.6 1169.8 557.1 1180.4 571.8C1181.1 572.7 1182.1 572.9 1182.7 572.2 1183.6 571.7 1183.8 570.8 1183.1 569.9L1171.3 553.8 1174.7 546 1194.1 543.9 1198.6 549.9 1189.7 569.2C1189.8 569.5 1189.8 569.8 1189.8 570.1 1189.9 570.4 1190.3 571 1190.6 571.3 1191.6 571.8 1192.6 571.4 1192.8 570.4L1200.9 552.8 1206.2 560.3 1202.3 569.4C1202 569.4 1202 569.8 1202.1 570.1 1202.1 570.7 1202.5 571.3 1203.2 571.6 1203.9 571.8 1204.8 571.4 1205.3 570.7L1208.4 563.3 1215.2 572.5C1215.6 573.1 1216.6 573.4 1217.5 572.9 1218.1 572.2 1218.3 571.2 1217.9 570.6L1211.5 562 1218.2 561.3C1219.1 561.2 1219.7 560.1 1219.6 559.5 1219.5 558.6 1218.8 557.7 1217.8 557.8L1209.2 558.7 1203.9 551.2 1221.7 549.3C1222.7 549.2 1223.2 548.5 1223.1 547.5 1223 546.6 1222.3 546 1221.4 546.1L1201.6 548.2 1196.8 542 1204.8 524.1 1212.2 523.3 1224.2 539.7C1224.6 540.6 1226 540.8 1226.5 540.1 1227.4 539.7 1227.3 538.7 1226.9 537.8L1216 522.9 1225.2 521.9 1230.5 529.4C1230.9 530 1232.2 530.2 1232.8 529.8S1233.6 528.1 1233.2 527.2L1229 521.5 1240.2 520.3C1241.1 520.2 1241.7 519.2 1241.5 518.2 1241.5 517.6 1240.7 516.7 1239.8 516.8L1228.7 518 1231.5 511.2C1231.7 510.6 1231.6 509.6 1230.6 509.1 1229.9 508.8 1228.7 509.3 1228.4 510L1224.8 518.4 1215.6 519.4 1223.1 502.5C1223.3 501.5 1223.2 500.5 1222.2 500 1221.5 499.8 1220.3 500.2 1220.1 500.9L1211.8 519.8 1204.5 520.6 1192.8 504.8 1196.2 497.7 1215.9 495.5C1216.9 495.4 1217.5 494.7 1217.4 493.8 1217.3 492.8 1216.5 491.9 1215.6 492L1197.7 493.9 1201.3 485.5 1209.9 484.6C1210.9 484.5 1211.5 483.8 1211.4 482.8 1211.3 481.9 1210.6 481.3 1209.6 481.4L1202.9 482.1 1207.3 472.3C1207.6 471.7 1207.1 470.4 1206.5 470.2 1205.5 469.9 1204.5 470.1 1204.3 471L1199.6 481.2 1195.1 474.9C1194.4 474.4 1193.4 474.1 1192.8 474.5 1192.2 474.9 1191.9 475.6 1192 476.2 1192 476.2 1192 476.5 1192.4 476.8L1198.1 484.9 1194.5 493.3 1182.8 477.9C1182.4 476.9 1181.4 476.7 1180.5 477.5 1180.2 477.8 1180 478.2 1180 478.8 1180.1 479.1 1180.1 479.4 1180.1 479.7L1192.9 496.7 1189.8 503.5 1170.4 505.6 1165.4 498.7 1173.4 480.5C1174 479.4 1173.6 478.5 1172.6 478.3 1171.9 477.7 1170.9 478.2 1170.4 479.2L1163.2 495.7 1157.6 488.3 1161.2 480.2C1161.4 479.5 1161 478.6 1160.3 478 1159.3 477.8 1158.4 477.9 1158.2 478.9L1155.3 485 1149.3 477C1148.8 476 1147.9 476.1 1147 476.6 1146.7 476.9 1146.4 477.6 1146.5 478.2 1146.5 478.2 1146.5 478.5 1146.6 478.8L1153 487.5 1145 488.3C1144.4 488.4 1143.5 489.2 1143.6 490.1 1143.7 491.1 1144.7 491.6 1145.3 491.5L1155.2 490.5 1160.8 497.9 1141.4 500C1140.5 500.1 1139.9 501.1 1140 502.1S1140.9 503.6 1141.8 503.5L1163.1 501.2 1167.7 507.5 1159.6 525.4 1151.3 526.3 1139.2 509.6C1138.5 509 1137.5 508.8 1136.6 509.2 1136.3 509.6 1136.1 510.2 1136.2 510.9 1136.2 511.2 1136.2 511.5 1136.6 511.8L1147.5 526.7 1138.3 527.7 1132.7 520.2C1132.3 519.6 1131.3 519.4 1130.4 519.9 1129.8 520.6 1129.6 521.5 1130 522.1L1134.5 528.1 1124.3 529.2C1123.7 529.3 1122.8 530.3 1122.9 531 1123 531.9 1124 532.8 1124.7 532.7L1134.8 531.6 1131.7 538.1C1131.7 538.4 1131.7 538.7 1131.8 539 1131.9 539.6 1132.2 540.2 1132.6 540.5 1133.6 540.7 1134.5 540.3 1135.1 539.6L1138.7 531.2 1147.9 530.2 1140.4 547.1C1139.8 548.1 1140.3 549 1140.9 549.3 1142 549.8 1142.9 549.4 1143.4 548.7L1151.7 529.8 1160 528.9 1171.7 544.7 1168.6 551.8 1147.2 554.1C1146.3 554.2 1145.7 554.9 1145.8 555.8 1145.9 556.8 1146.6 557.4 1147.6 557.3L1167 555.2 1163.1 563.7 1153.2 564.7C1152.6 564.8 1151.7 565.8 1151.8 566.8 1151.9 567.7 1152.9 568.3 1153.6 568.2L1161.5 567.4 1157.1 577.2C1157.2 577.5 1157.2 577.5 1157.2 577.8 1157.3 578.4 1157.6 579 1158 579.3 1159 579.5 1159.9 579.1 1160.2 578.4ZM1163.8 528.5L1162.6 526.7 1163.4 525 1169.9 510.5 1170.7 508.8 1172.6 508.6 1188.2 506.9 1190.1 506.7 1191.2 508.2 1200.7 521 1201.8 522.5 1201 524.5 1194.5 538.7 1193.8 540.7 1191.9 540.9 1176.3 542.6 1174.4 542.8 1173.2 541 1163.8 528.5Z" fill="rgba(21, 139, 213, 1)"></path><path d="M1301.9 29.7L1310.9 54.6 1307.9 61.3 1291.7 62.7 1287.3 56.7 1292.1 30.6C1292 30.3 1292 30.3 1292 29.9 1291.9 29.3 1291.6 28.7 1290.6 28.5 1289.6 28.5 1289 28.9 1288.8 29.9L1284.7 52.8 1278.1 43.4 1279.8 33.3C1279.8 33.3 1279.7 33 1279.7 33 1279.7 32.3 1279.3 31.7 1278.3 31.5 1277.7 31.2 1276.8 31.9 1276.5 32.9L1275.2 39.5 1270.4 32.5C1270 31.9 1269 31.6 1268.1 32S1267.3 33.7 1267.7 34.7L1272.4 41.3 1265.9 40.3C1264.9 40 1264 40.8 1263.8 41.7 1263.9 42.4 1264.3 43.3 1265.3 43.5L1275.4 45.2 1282 54.9 1259.1 50.8C1258.2 50.6 1257.3 51.3 1257 52 1257.1 52.9 1257.5 53.9 1258.5 54.1L1284.6 58.5 1289 64.9 1282.2 79.3 1274.6 80 1254.1 63.1C1253.4 62.6 1252.5 62.7 1251.9 63.3S1251.4 65 1252.1 65.6L1270.1 80.4 1258.3 81.4 1250.7 75C1250 74.4 1249 74.5 1248.1 75.2S1247.6 76.9 1248.3 77.5L1253.8 81.8 1245.2 82.6C1244.3 82.6 1243.7 83.7 1243.8 84.6 1243.9 85.6 1244.6 86.2 1245.5 86.1L1254.1 85.3 1249.8 90.5C1248.9 91.2 1249 92.2 1250 92.7 1250.7 93.3 1251.6 93.2 1252.2 92.6L1258.6 84.9 1270.4 83.9 1255.3 101.6C1254.7 102.3 1254.8 103.6 1255.5 104.1S1257.1 104.6 1257.7 104L1274.9 83.5 1282.5 82.8 1291.7 96.1 1288.5 102.9 1263.5 111.8C1262.6 112.2 1262.4 113.2 1262.5 114.1 1262.9 115.1 1263.8 115.3 1264.8 115.2L1286.6 107.2 1281.7 117.6 1272.1 121C1271.1 121.4 1270.9 122.4 1271 123.3 1271.4 124 1272.4 124.5 1273.3 124.1L1279.5 122 1276 129.6C1275.8 130.3 1276.2 131.2 1276.9 131.8 1277.8 132.1 1278.8 131.7 1279 131L1282.5 123.3 1285 129.8C1285.4 130.4 1286.4 131 1287 130.6 1288 130.5 1288.3 129.9 1288.2 128.9 1288.2 128.9 1288.1 128.6 1288.1 128.6L1284.7 118.9 1289.6 108.5 1297.6 130.3C1298 131.3 1298.7 131.8 1299.6 131.4 1300.6 131 1300.8 130.4 1300.8 129.7 1300.7 129.4 1300.7 129.4 1300.7 129.4L1291.5 104.2 1294.7 97.5 1311 96.1 1315 102.1 1310.6 128.5C1310.4 129.2 1311.1 130.1 1311.7 130.4 1312.7 130.6 1313.6 129.9 1313.9 128.9L1318 106 1324.6 115.4 1322.9 125.5C1322.7 126.5 1323.1 127.4 1324 127.4 1325 127.6 1325.9 126.9 1326.2 126.2L1327.2 119.4 1332 126.3C1332.6 126.9 1333.6 127.2 1334.6 126.8 1334.8 126.4 1335.1 125.7 1335.1 125.1 1335 124.8 1335 124.8 1334.7 124.5L1329.9 117.5 1336.7 118.5C1337.7 118.8 1338.3 118.1 1338.6 117.4 1338.5 117.1 1338.5 117.1 1338.5 116.8 1338.4 116.1 1338.1 115.5 1337.4 115.3L1327.3 113.6 1320.7 104.2 1343.5 108.3C1344.5 108.2 1345.4 107.8 1345.3 106.9 1345.6 106.5 1345.6 106.5 1345.6 106.2 1345.5 105.6 1344.9 105 1344.2 104.7L1317.8 100.3 1313.7 94.2 1320.4 79.5 1327.8 78.8 1348.2 96C1348.9 96.6 1350.2 96.5 1350.8 95.8S1351.3 93.8 1350.6 93.2L1332.6 78.4 1344 77.4 1352 83.8C1352.7 84.4 1353.6 84.3 1354.2 83.6 1354.8 82.9 1354.7 81.9 1354 81.4L1348.8 77 1357.4 76.2C1358.1 76.2 1359 75.5 1358.9 74.5 1358.8 73.6 1357.8 72.7 1357.1 72.7L1348.5 73.5 1352.9 68.3C1353.2 67.9 1353.5 67.6 1353.4 67.3 1353.4 66.6 1353 66.3 1352.7 66.1 1352 65.5 1351 65.6 1350.4 66.3L1343.7 73.9 1332.3 74.9 1347.4 57.2C1347.7 56.9 1347.7 56.5 1347.6 55.9 1347.6 55.6 1347.6 55.3 1347.2 55 1346.5 54.4 1345.2 54.5 1344.7 55.2L1327.5 75.3 1320.1 76 1311 63 1313.9 56 1339.1 47C1339.7 46.6 1340.3 45.9 1340.3 45.3 1340.2 45 1340.2 45 1339.9 45 1339.8 44.1 1338.8 43.5 1337.9 43.9L1316.1 51.9 1320.9 41.2 1330.6 37.8C1331.2 37.4 1331.5 36.8 1331.4 36.1 1331.4 36.1 1331.4 35.8 1331.4 35.8 1331.3 34.8 1330.3 34.3 1329.4 34.7L1322.8 37.2 1326.3 29.5C1326.6 29.2 1326.6 28.8 1326.6 28.5 1326.5 27.9 1326.1 27.3 1325.8 27.3 1324.8 26.7 1323.9 27.1 1323.3 27.8L1319.8 35.5 1317.6 29.3C1317.2 28.4 1316.2 27.8 1315.3 28.2 1314.7 28.6 1314.1 29.6 1314.5 30.2L1317.9 39.9 1313.1 50.3 1305 28.5C1304.6 27.6 1303.7 27.3 1302.7 27.4 1302.1 27.8 1301.5 28.8 1301.9 29.7ZM1293.9 66.1L1306.3 65 1308.2 64.8 1309.3 66.3 1316.3 76.3 1317.4 78.1 1316.6 79.8 1311.5 90.9 1310.7 92.6 1308.8 92.7 1296.3 93.8 1294.4 94 1293.3 92.5 1286.3 82.5 1285.2 81 1286 79 1291.2 67.9 1292 66.2 1293.9 66.1Z" fill="rgba(147, 86, 39, 1)"></path><path d="M521.8 126.5L506.9 128.7 510.4 119.1C510.8 118.2 510.3 116.7 509 115.9 507.7 115.8 506.2 116.3 505.8 117.3L501 129.7 487.2 131.6 497.1 106.4C497.6 104.8 497.1 103.3 495.7 103.2 494.4 102.4 493 102.9 492.5 104.5L481.6 132.4 469.1 134.4 450.8 111.6 454.6 101.1 486.2 96.7C486.6 96.4 486.9 96.1 487.3 95.8 487.7 95.5 488.1 94.5 488.2 93.8 488 92.1 486.8 91.3 485.4 91.8L456.6 95.8 461.7 83.1 476.3 80.6C476.6 81 477 80.7 477.4 80.4 478.1 79.8 478.6 78.8 478.4 77.7 478.1 76.7 476.8 75.9 475.5 75.7L463.7 77.8 469.9 61.8C470.3 60.8 469.8 59.4 468.5 58.6 467.1 58.4 465.7 58.9 465.3 59.9L459.5 75 453.2 67.1C452.3 66 450.6 66.2 449.8 66.8 448.7 67.7 448.2 69.3 449.1 70.4L457.2 80.5 452.1 93.3 435.2 72.3C434.3 71.2 433 71.1 431.9 72 430.7 72.9 430.6 74.2 431.5 75.3L450.1 98.6 446.2 109.7 417 114.1 410.1 105.5 421.1 76.9C421.9 75.7 421.1 73.9 419.7 73.7 418.4 72.9 417.3 73.8 416.5 75.1L406.5 101 397.8 90.1 402.9 77.4C403.4 76.4 402.6 74.6 401.6 74.1S398.8 74.5 398 75.8L394.2 85.6 383.7 72.5C382.8 71.4 381 71.5 379.9 72.4 379.2 73.1 378.6 74.7 379.5 75.8L390.1 88.9 379.3 90.8C378.2 91 377.1 91.9 377.3 93.7 377.5 94.7 379.1 95.9 380.1 95.7L393.7 93.4 402.4 104.3 375 108.4C373.5 109 372.4 109.9 372.6 111.6 372.8 112.6 374.4 113.8 375.4 113.6L406 108.8 412.9 117.4 402.4 144.9 390.6 146.3 372 123.1C371.1 122 369.7 121.9 368.6 122.8 367.5 123.7 367 125.3 367.9 126.4L384.7 147.4 371.1 149.7 363 139.6C362.1 138.5 360.8 138.3 359.7 139.2 358.5 140.1 358.4 141.5 359.3 142.6L365.6 150.4 349.6 152.8C348.6 153 347.4 154.6 347.6 155.6 348.1 157.1 349 158.2 350.5 157.7L367.1 155.4 362.9 166.2C362.7 167.5 363.2 169 364.2 169.4 365.2 169.9 366.2 169.6 367 169 367 169 367.4 168.7 367.4 168.1L373 154.3 386.6 152 376.4 179.3C375.6 180.6 376.2 182 377.8 182.5 378.5 182.6 379.2 182.6 379.9 182 380.3 181.7 380.6 181.4 381 181.1L392.1 151.3 403.2 149.8 421.6 172.6 416.9 184.4 387.3 189C385.6 189.2 384.8 190.4 385.3 191.9 385.2 193.2 386.4 194 388.2 193.9L414.9 189.6 410.1 202.8 396.9 204.7C395.8 205 395 206.2 394.9 207.6 395.4 209 396.3 210.1 397.7 209.6L407.8 208.3 402.5 222.4C401.6 223.7 402.5 224.8 403.8 225.6 404.5 225.7 405.5 225.5 406.3 224.9 406.3 224.9 406.7 224.6 407 224.3L412.8 209.2 420.3 218.6C420.9 219.3 422.6 219.8 423.7 218.9 424.8 218 424.6 216.3 424 215.5L414.7 203.9 419.6 190.8 437.9 213.6C438.8 214.8 440.5 214.6 441.7 213.7S442.9 211.5 442 210.3L421.9 185.3 426.1 174.5 455.3 170.1 463.1 179.9 451.8 208.7C451.6 210 452.1 211.4 453.4 212.3 454.1 212.3 455.1 212.1 455.9 211.5 456.3 211.2 456.6 210.9 456.7 210.2L466.7 184.4 475.4 195.2 470.6 208.3C470.1 209.3 470.7 210.7 471.9 211.6 473.3 211.7 474.7 211.2 475.2 210.2L479 199.7 488.7 211.7C489.3 212.4 491.3 212.6 492 212 493.2 211.1 493.4 209.1 492.8 208.4L483.2 196.4 493.9 195.2C494.2 194.9 494.6 194.6 495 194.3 495.7 193.7 496.2 192.7 496.3 192 495.7 190.6 494.5 189.8 493.1 189.6L479.5 191.9 470.8 181 498.3 176.9C500 176.7 500.8 175.4 500.6 174.4 500.4 172.7 499.1 171.8 497.8 171.7L467.2 176.6 459.4 166.8 469.9 139.3 481.4 137.5 501.5 162.5C502.4 163.7 503.8 163.8 504.9 162.9 506 162 506.2 160.7 505.3 159.5L486.9 136.7 500.8 134.8 510.1 146.4C510.7 147.2 512.7 147.4 513.9 146.5 515 145.6 514.8 143.9 514.2 143.1L506.7 133.8 522.7 131.4C523.1 131.1 523.1 131.1 523.4 130.8 524.2 130.2 524.6 129.2 524.7 128.5 524.2 127.1 522.9 126.3 521.8 126.5ZM455.8 162.3L454.5 165.3 451.7 165.6 428.1 169.2 425.3 169.6 423.5 167.3 408.8 149 407 146.8 407.9 144.1 416.5 121.9 417.5 119.2 420.6 118.5 443.9 115.3 447 114.6 448.8 116.8 463.5 135.2 465.3 137.4 464 140.4 455.8 162.3Z" fill="rgba(147, 126, 39, 1)"></path><path d="M337.4 291.4L362 301.2 371.2 323 347.7 320.1 331.6 299C331.6 299 331.3 298.8 331.3 298.8 330.8 298.4 329.9 298.6 329.3 298.9 328.4 299.5 328.4 300.6 329.1 301.2L343.3 319.5 331.9 318.2 325.6 310.1C325.6 310.1 325.3 309.9 325.3 309.9 324.8 309.5 323.9 309.7 323.3 310 322.4 310.6 322.4 311.7 323.1 312.3L327.3 317.9 319 316.8C318.3 316.6 317.2 317.5 317.1 318.2 316.8 319.1 317.8 319.9 318.5 320L326.9 321.1 321.3 325.3C320.5 325.9 320.4 327.1 321.2 327.6 321.7 328.5 322.9 328.5 323.5 327.8L331.5 321.4 342.7 323.1 324.3 337.3C323.5 337.8 323.4 339 324.2 339.6 324.8 340.4 325.9 340.5 326.5 339.7L347.5 323.5 371 326.4 356.5 345.6 330.1 349.2C329.2 349.4 328.6 350.1 328.8 351 328.9 351.9 329.6 352.5 330.5 352.4L353.8 349.1 346.9 358.3 337 359.7C336.1 359.8 335.6 360.6 335.7 361.5 335.8 362.4 336.6 363 337.5 362.8L344.2 361.9 338.8 369.1C338 369.6 338.3 370.7 339.1 371.3 339.9 371.9 340.8 371.8 341.3 371L346.4 364.4 347.3 371.1C347.4 372 348.2 372.6 349.1 372.4S350.6 371.5 350.4 370.6L349.1 360.8 356 351.6 359.3 374.9C359.4 375.8 360.1 376.4 361 376.2 361.9 376.1 362.5 375.4 362.4 374.5L358.7 348 373 329.1 382.2 350.9 372.5 374.9C372.2 375.8 372.7 376.7 373.5 377.3 374.5 377.6 375.3 377 375.9 376.2L384.5 354.7 389 365.3 385 374.7C384.7 375.7 385.3 376.5 386.1 377.1 387 377.4 387.9 376.9 388.2 376.4L390.8 369.8 394.1 377.6C394.4 378.2 395.5 379 396.3 378.4 397.1 377.9 397.7 377.1 397.1 376.3L393.8 368.5 400.3 371C401.2 371.3 402.1 370.8 402.5 370.3 402.6 369.6 402.5 368.7 402 368.3 402 368.3 401.7 368.1 401.7 368.1L392.3 364.1 387.8 353.6 409.3 362.2C410.3 362.5 411.1 362 411.5 361.5 411.7 360.8 411.5 359.9 411 359.5 411 359.5 410.8 359.3 410.8 359.3L386.1 349.5 376.9 327.7 400.4 330.6 416.6 351.6C417.1 352.5 418.3 352.5 418.9 351.8 419.7 351.2 419.8 350 419 349.5L404.8 331.1 416.2 332.5 422.6 340.5C423.1 341.4 424.3 341.4 424.9 340.7 425.7 340.1 425.8 338.9 425 338.3L420.8 332.8 429.2 333.9C429.9 334 430.9 333.2 431 332.5 431.2 331.8 430.8 331.1 430.3 330.8 430.1 330.6 429.8 330.4 429.4 330.4L421 329.3 426.6 325.1C427.4 324.5 427.5 323.4 426.7 322.8 426.7 322.8 426.5 322.6 426.5 322.6 425.9 322.2 425.1 322.4 424.4 322.7L416.4 329 405 327.6 423.4 313.4C424.2 312.9 424.3 311.7 423.5 311.1 423.5 311.1 423.2 311 423.2 311 422.7 310.6 421.8 310.7 421.2 311L400.1 327.2 376.7 324.3 390.9 305.4 417.4 301.7C418.3 301.6 418.9 300.8 418.7 299.9 418.6 299 417.8 298.5 417 298.6L393.8 301.6 400.8 292.4 410.6 291C411.5 290.9 412.1 290.1 412 289.2S411.1 287.7 410.2 287.9L403.5 288.8 408.5 282.2C409.1 281.4 409 280.5 408.2 279.9 407.4 279.3 406.5 279.5 406 280.2L400.9 286.9 400 280.1C399.9 279.7 399.9 279.2 399.4 278.9S398.4 278.5 398 278.6C397.1 278.7 396.5 279.5 396.6 280.4L398 290.2 391 299.4 387.8 276.1C387.7 275.7 387.7 275.2 387.2 274.8 386.9 274.7 386.2 274.5 385.7 274.6 384.9 274.7 384.3 275.5 384.4 276.4L388.1 302.8 373.8 321.7 364.6 299.9 374.4 275.2C374.5 274.5 374.4 273.6 373.9 273.3 373.9 273.3 373.7 273.1 373.7 273.1 372.7 272.7 371.9 273.3 371.5 273.8L362.8 295.4 358.4 284.8 362.3 275.3C362.5 274.6 362.3 273.7 361.8 273.3 361.8 273.3 361.6 273.1 361.6 273.1 360.6 272.8 359.8 273.4 359.4 273.9L356.9 280.4 353.5 272.7C353.2 272.5 353.2 272 352.9 271.8 352.4 271.4 351.7 271.3 351.1 271.6 350.2 272.2 349.7 273 350.2 273.8L353.6 281.6 347.1 279C346.1 278.7 345.3 279.3 344.9 279.8 344.6 280.8 345.1 281.6 345.7 282L355.1 285.9 359.6 296.5 338 287.8C337.1 287.5 336.2 288.1 335.8 288.6 336 289.9 336.4 291 337.4 291.4Z" fill="rgba(39, 147, 87, 1)"></path><path d="M81.8 265.1L101.3 266.9 94.9 276.8C94.1 277.8 94.4 279.5 95.6 280.8 97.1 281.3 98.8 281.1 99.4 279.6L107.8 267.5 123.1 268.2 105.4 293.5C104.9 295 105.1 296.7 106.1 297.5 107.9 298.5 109.6 298.3 110.1 296.8L129.6 268.8 152.8 270.6 135.3 290.9 162.1 289.8 149 309.1 115 306.9C114.8 306.4 114.3 306.6 113.7 306.9 112.7 307.4 112 308.4 112 309.6 111.9 310.9 113.2 312.1 114.7 312.7L145.4 314.6 136.5 327 121.7 326C121 325.8 120.5 326 120 326.3 119.5 326.5 118.7 327.5 118.7 328.7 118.7 330 119.9 331.3 121.2 331.3L132.9 332.5 122.2 348.8C120.9 350.1 121.6 351.6 122.8 352.8 123.8 353.6 125.6 353.4 126.6 351.6L137.6 335.8 142.7 346.4C143.5 347.9 145.5 348.2 146.5 347.7 148 346.9 148.5 345.5 147.8 343.9L141.2 330.3 150.2 317.9 163.3 345.2C164 346.7 165.5 347.2 167 346.5 168 346 169.1 344.3 168.3 342.7L153.7 312.5 166.8 293.1 175.7 318 188.1 294.7 198.3 315.9 179.3 343.6C178.3 345.4 179 346.9 180 347.7 181 348.4 182.8 348.2 184 347L200.9 321.4 207.5 335 199.3 347.7C198 348.9 198.3 350.7 200 351.7 201 352.5 202.8 352.3 203.8 350.5L210.4 341.1 218.9 358.8C219.7 360.3 221.2 360.8 222.7 360.1S224.7 357.8 224 356.3L215.5 338.7 227 339.3C229 339.6 230.3 338.4 230.3 337.1 230.6 335.1 229.3 333.9 227.6 334.1L212.6 332.6 206 319 236.5 321.7C238.3 321.5 239.5 320.2 239.6 319 239.8 317 238.6 315.7 236.8 315.9L203.3 313.4 193.1 292.3 219.1 297.1 205.1 274.6 228.4 276.5 243 306.8C243.7 308.3 245.7 308.5 246.7 308.1 248.2 307.3 248.8 305.8 248 304.3L234.7 276.6 250.2 277.8 256.7 291.4C257.5 292.9 259 293.5 260.5 292.7 261.5 292.2 262.5 290.5 261.8 289L256.7 278.4 275.9 279.7C277.9 280 279.2 278.7 279 277 279 275.7 278.3 274.2 276.5 274.4L257 272.6 263.4 262.7C264.2 261.7 264 260 263 259.2 262 258.4 260.7 258.4 260.2 258.7 259.7 258.9 259.2 259.2 259 259.9L250.5 272.1 235.2 271.3 252.9 246C253.4 244.5 253.2 242.8 252.2 242 251.2 241.3 250 241.2 248.9 241.7 248.4 242 248.4 242 248.2 242.7L228.7 270.7 205.5 268.9 223 248.6 196.2 249.7 209.3 230.4 243.3 232.6C244.6 232.6 246.1 231.9 246.4 229.9 246.4 228.7 245.1 227.4 243.7 226.9L212.9 224.9 221.8 212.5 236.6 213.5C238.1 214 239.4 212.8 239.6 210.8 239.6 209.5 238.4 208.3 236.9 207.7L225.4 207.1 236.2 190.7C237.4 189.5 236.7 187.9 235.5 186.7 234.7 186.4 233.5 186.4 233 186.6 232.5 186.9 232 187.1 231.7 187.9L220.7 203.7 215.6 193.1C214.9 191.6 212.9 191.4 211.9 191.8L211.9 191.8C210.3 192.6 209.8 194.1 210.5 195.6L217.1 209.2 208.2 221.6 195 194.3C194.3 192.8 192.8 192.3 191.3 193S189.3 195.3 190 196.8L204.6 227 191.5 246.4 182.6 221.5 170.3 244.8 160 223.6 179 195.9C180 194.1 179.3 192.6 178.3 191.9 177.3 191.1 175.5 191.3 174.3 192.5L157.1 217.6 150.8 204.5 159 191.8C160.3 190.6 160.1 188.8 158.3 187.8 157.3 187 155.6 187.3 154.3 188.5L147.9 198.4 139.4 180.8C138.7 179.3 137.2 178.7 135.6 179.5S133.6 181.7 134.3 183.2L142.8 200.9 131.3 200.2C130.6 199.9 130.1 200.2 129.6 200.4 128.6 200.9 128.3 201.6 128 202.4 127.8 204.4 129 205.7 130.8 205.4L145.8 206.9 152.3 220.5 121.8 217.8C121.3 218.1 120.8 218.3 120.3 218.6 119.3 219 119 219.8 118.8 220.5 118.5 222.5 119.7 223.8 121.5 223.6L155 226.1 165.2 247.3 139.2 242.4 153.2 264.9 129.9 263 115.3 232.8C114.6 231.2 112.6 231 111.6 231.5 110.1 232.2 109.6 233.7 110.3 235.2L123.4 262.4 108.1 261.7 101.6 248.1C100.9 246.6 99.4 246.1 97.8 246.8S95.8 249 96.5 250.5L101.6 261.1 82.4 259.8C81.6 259.6 81.1 259.8 80.6 260.1 80.1 260.3 79.3 261.3 79.3 262.5 79.3 263.8 80 265.3 81.8 265.1ZM150.4 250.1L171.6 254.1 181.7 235 189.1 255.6 210.4 254.7 196.7 271.3 207.9 289.5 186.7 285.4 176.6 304.5 169.4 284.4 147.9 284.8 161.9 268.8 150.4 250.1Z" fill="rgba(21, 139, 213, 1)"></path><path d="M954.2 433.8L973.2 422.1 974.2 435.5C974.2 437 975.6 438.4 977.6 438.7 979.3 438.2 980.7 436.8 980.2 435.1L979.6 418.2 994 408.3 995.3 443.6C995.8 445.3 997.2 446.7 998.6 446.8 1000.9 446.5 1002.4 445.1 1001.8 443.4L1000.4 404.4 1022.9 390.1 1020.8 420.7 1044.5 401.3 1045.8 427.9 1013.2 449.2C1012.6 449 1012.3 449.5 1012 450.1 1011.5 451.2 1011.4 452.7 1012.3 453.8 1013.1 455 1015.1 455.3 1016.8 454.7L1046.3 435.4 1046.6 452.9 1032.5 462.1C1031.6 462.4 1031.3 463 1031 463.5 1030.7 464.1 1030.7 465.5 1031.6 466.7 1032.4 467.8 1034.4 468.1 1035.6 467.3L1047.1 460.3 1048.5 482.7C1048.2 484.7 1049.9 485.5 1051.9 485.9 1053.3 485.9 1054.8 484.5 1054.5 482.2L1053.7 460.1 1065.6 466.3C1067.3 467.2 1069.4 466.1 1069.9 464.9 1070.8 463.2 1070.3 461.5 1068.6 460.6L1053.2 452.7 1052.9 435.2 1083.6 451.1C1085.3 452 1087 451.4 1087.9 449.7 1088.5 448.6 1088.2 446.3 1086.5 445.4L1052.4 427.8 1051.1 401.1 1076.3 417.8 1071.6 387.9 1095.5 400.3 1097.2 438.7C1097.5 441 1099.2 441.9 1100.6 441.9 1102 441.9 1103.5 440.5 1103.8 438.5L1101.7 403.5 1117.1 411.5 1118.3 428.7C1117.9 430.7 1119.4 432.1 1121.6 431.9 1123.1 431.9 1124.5 430.5 1124.3 428.2L1123.9 415 1143.8 425.3C1145.5 426.2 1147.2 425.6 1148.1 423.9S1148.4 420.5 1146.7 419.6L1126.8 409.3 1137.8 402C1139.8 400.9 1140.1 398.9 1139.3 397.8 1138.2 395.7 1136.2 395.4 1134.7 396.8L1120 405.8 1104.7 397.8 1134.4 379.4C1135.8 378 1136.2 376 1135.3 374.8 1134.2 372.8 1132.2 372.5 1130.8 373.9L1098.4 394.6 1074.5 382.3 1101.6 368.9 1073.4 357.9 1096 343.6 1130.1 361.3C1131.8 362.2 1133.8 361 1134.4 359.9 1135.3 358.2 1134.7 356.5 1133 355.6L1101.7 339.4 1116.8 329.9 1132.1 337.8C1133.8 338.7 1135.5 338.2 1136.4 336.5 1137 335.3 1136.8 333 1135.1 332.1L1123.1 326 1141.6 313.9C1143.6 312.8 1143.9 310.8 1142.5 309.4 1141.7 308.2 1140 307.3 1138.5 308.7L1119.5 320.5 1118.5 307C1118.5 305.6 1117.1 304.1 1115.7 304.1 1114.3 304.1 1113.1 304.9 1112.8 305.5 1112.5 306.1 1112.2 306.6 1112.5 307.5L1113.1 324.4 1098.7 334.2 1097.4 299C1096.9 297.3 1095.5 295.8 1094.1 295.8 1092.6 295.8 1091.5 296.6 1090.9 297.8 1090.6 298.3 1090.6 298.3 1090.9 299.2L1092.3 338.1 1069.8 352.4 1071.9 321.8 1048.2 341.2 1046.8 314.6 1079.5 293.3C1080.6 292.5 1081.5 290.8 1080.4 288.7 1079.6 287.6 1077.6 287.3 1075.8 287.8L1046.4 307.2 1046 289.7 1060.2 280.4C1061.9 279.9 1062.2 277.9 1061.1 275.9 1060.3 274.7 1058.3 274.4 1056.6 275L1045.6 282.2 1044.2 259.9C1044.5 257.9 1042.8 257 1040.8 256.7 1039.9 257 1038.8 257.8 1038.5 258.4 1038.2 259 1037.9 259.5 1038.2 260.4L1039 282.4 1027.1 276.3C1025.3 275.4 1023.3 276.5 1022.7 277.6L1022.7 277.6C1021.9 279.3 1022.4 281.1 1024.1 281.9L1039.5 289.9 1039.8 307.4 1009.1 291.5C1007.4 290.6 1005.7 291.1 1004.8 292.8S1004.4 296.3 1006.2 297.2L1040.3 314.8 1041.6 341.4 1016.4 324.8 1021.1 354.6 997.2 342.3 995.5 303.9C995.2 301.6 993.5 300.7 992.1 300.7 990.6 300.7 989.2 302.1 988.9 304.1L990.4 338.7 975.6 331.1 974.4 313.9C974.7 311.9 973.3 310.4 971 310.7 969.6 310.7 968.2 312.1 967.8 314.1L968.8 327.6 948.9 317.3C947.2 316.4 945.5 316.9 944.6 318.6S944.3 322.1 946 322.9L965.9 333.2 954.9 340.5C954 340.8 953.7 341.4 953.4 341.9 952.8 343.1 953.1 343.9 953.4 344.8 954.5 346.8 956.5 347.1 958 345.7L972.7 336.8 988 344.7 958.3 363.2C958 363.8 957.7 364.3 957.4 364.9 956.8 366 957.1 366.9 957.4 367.8 958.5 369.8 960.5 370.1 961.9 368.7L994.3 347.9 1018.2 360.3 991.1 373.7 1019.3 384.6 996.7 398.9 962.6 381.3C960.9 380.4 958.9 381.5 958.3 382.7 957.4 384.4 958 386.1 959.7 387L990.4 402.8 975.9 412.7 960.6 404.7C958.9 403.8 957.2 404.4 956.3 406.1S955.9 409.5 957.6 410.4L969.6 416.6 951.1 428.6C950.2 428.9 949.9 429.5 949.6 430 949.3 430.6 949.3 432 950.2 433.2 951 434.4 952.7 435.2 954.2 433.8ZM1006.5 373L1028.7 362.2 1024.8 337.8 1045.8 351.5 1064.6 336 1063.4 360.6 1086.2 369.5 1064 380.4 1067.9 404.8 1047.5 391.3 1028.1 406.5 1029.9 382.2 1006.5 373Z" fill="rgba(147, 126, 39, 1)"></path><path d="M859.3 155L859.3 143.8 865.3 146.9C865.9 147.3 866.9 147.1 867.6 146.3 867.8 145.4 867.6 144.4 866.7 144.2L859.3 140 858.9 131.3 874.2 140C875.1 140.3 876.1 140 876.5 139.4 877 138.4 876.8 137.4 875.9 137.2L858.9 127.6 858.8 114.2 871.2 123.2 869.2 108 880.9 114.4 881.4 133.9C881.1 134.1 881.3 134.3 881.4 134.6 881.8 135.2 882.4 135.5 883.1 135.5 883.8 135.4 884.5 134.7 884.7 133.8L884.2 116.2 891.7 120.6 891.9 129.1C891.8 129.5 892 129.8 892.1 130.1 892.3 130.3 892.9 130.7 893.6 130.7 894.3 130.6 895 129.8 894.9 129.1L895 122.4 904.9 127.6C905.6 128.3 906.5 127.8 907.1 127 907.5 126.4 907.3 125.4 906.2 125L896.6 119.5 902.4 116.1C903.2 115.6 903.3 114.4 903 113.9 902.5 113 901.6 112.8 900.8 113.3L893.3 117.8 885.8 113.3 900.6 104.4C901.5 103.9 901.7 103.1 901.2 102.2 900.9 101.7 899.8 101.2 899 101.7L882.5 111.6 870.8 105.1 884.6 98.8 870.6 93 882.2 86 898.9 95.4C900 95.9 900.8 95.4 901.2 94.8 901.6 94.2 901.4 93.2 900.6 92.5L885.2 84.2 892.6 79.8 900.2 83.8C901 84.5 902 84.2 902.5 83.2 902.8 82.6 902.6 81.6 901.6 81.1L895.9 77.8 905.5 72C906.3 71.6 906.5 70.7 906 69.9S904.7 68.8 903.8 69.3L894.2 75.1 894 68.5C894.1 67.3 893.3 66.7 892.6 66.7 891.4 66.7 890.8 67.4 891 68.4L890.9 77 883.5 81.5 883.5 64C883.3 63 882.5 62.3 881.8 62.4 880.6 62.3 880 63.1 880.2 64.1L880.5 83.3 869 90.2 870.4 75.2 858.3 84.3 858.2 70.9 874.6 61.1C875.5 60.6 875.5 59.4 875.2 58.9 874.7 58.1 873.8 57.8 873 58.3L857.9 67.4 857.8 58.5 865.2 54C866 53.6 866.2 52.7 865.7 51.9 865.4 51.3 864.4 50.8 863.6 51.3L857.8 54.8 857.5 43.7C857.6 42.6 856.8 41.9 855.8 42.1 855.1 42.2 854.3 42.7 854.5 43.7L854.5 54.9 848.5 51.7C847.9 51.4 846.9 51.6 846.5 52.2 846.2 52.8 846.2 53.5 846.4 53.8 846.5 54 846.7 54.3 847.1 54.4L854.5 58.6 854.9 67.3 839.6 58.6C838.7 58.4 837.7 58.6 837.3 59.2 836.9 59.8 837 60.5 837.3 61.1 837.5 61.3 837.5 61.3 837.9 61.5L854.9 71.1 855 84.4 842.6 75.4 844.6 90.6 832.9 84.2 832.4 64.7C832.4 64 831.9 63.2 830.7 63.2 830 63.2 829.4 64 829.1 64.9L829.6 82.5 822.1 78 821.9 69.6C822.1 68.7 821.3 68 820.2 68 819.5 68 818.8 68.8 818.6 69.7L818.8 76.3 808.9 71C808.2 70.3 807.4 70.8 806.7 71.6 806.6 72 806.6 72.8 806.8 73 807 73.3 807.1 73.6 807.6 73.7L817.2 79.1 811.4 82.6C810.6 83.1 810.5 84.2 810.9 84.8L810.9 84.8C811.4 85.6 812.2 85.8 813.1 85.3L820.5 80.9 828 85.3 813.2 94.2C812.3 94.7 812.1 95.6 812.6 96.4S814 97.5 814.8 97L831.3 87.1 843 93.5 829.2 99.9 843.2 105.7 831.7 112.6 814.9 103.3C813.8 102.8 813 103.3 812.6 103.9 812.2 104.5 812.5 105.5 813.2 106.1L828.4 114.6 821.2 118.9 813.6 114.8C812.8 114.2 811.9 114.4 811.4 115.5 811 116.1 811.2 117 812 117.7L817.9 120.8 808.3 126.6C807.5 127.1 807.3 128 807.8 128.8S809.2 129.8 810 129.3L819.6 123.6 819.8 130.2C819.7 130.6 819.9 130.9 820 131.1 820.4 131.7 820.8 131.8 821.2 131.9 822.4 132 823 131.2 822.8 130.2L822.9 121.6 830.3 117.2 830.3 134.7C830.5 134.9 830.7 135.2 830.8 135.5 831.2 136 831.6 136.1 832 136.3 833.2 136.3 833.9 135.5 833.6 134.6L833.3 115.3 844.8 108.4 843.4 123.5 855.5 114.4 855.6 127.7 839.2 137.6C838.4 138.1 838.3 139.2 838.6 139.8 839.1 140.6 840 140.8 840.8 140.3L855.6 131.4 856 140.2 848.6 144.6C847.8 145.1 847.6 146 848.1 146.8S849.4 147.8 850.3 147.3L856 143.9 856.3 154.9C856.2 155.4 856.4 155.6 856.5 155.9 856.7 156.2 857.3 156.6 858 156.5 858.7 156.5 859.5 156 859.3 155ZM847.2 116.7L848.4 104.4 837 99.7 848.3 94.4 846.7 82.3 856.9 89.3 866.6 81.9 865.4 94.2 876.8 98.9 865.7 104.1 867.1 116.3 857.2 109.2 847.2 116.7Z" fill="rgba(39, 147, 87, 1)"></path><path d="M648.3 339.1L692.4 324.5 729.2 343.4 694.5 365.9 649.1 355.8C649.1 355.8 648.6 355.9 648.6 355.9 647.5 355.9 646.4 357.1 645.9 358.3 645.4 360 646.6 361.6 648.3 361.5L688 370.1 671.2 381.1 653.6 377.5C653.6 377.5 653 377.5 653 377.5 651.9 377.6 650.9 378.7 650.4 379.9 649.9 381.6 651.1 383.2 652.8 383.1L664.7 385.9 652.2 393.8C651.1 394.4 650.6 396.7 651.3 397.8 651.9 399.4 654.1 399.3 655.2 398.7L667.7 390.8 665 402.7C664.5 404.4 665.7 406 667.4 405.9 669.1 406.4 670.7 405.2 670.6 403.5L674.2 386 691.1 375.6 682.4 415.3C682 417 683.2 418.6 684.8 418.5 686.5 419 688.2 417.8 688.1 416.1L698.1 370.7 732.9 348.2 735 390.2 703.7 424.8C702.6 426 702.7 427.7 703.9 428.8 705 429.8 706.7 429.7 707.8 428.6L735.4 398 736.4 418.1 724.7 431.1C723.7 432.2 723.8 433.9 724.9 435 726.1 436 727.8 436 728.8 434.8L736.8 426 737.6 441.6C737.1 443.3 738.9 444.4 740.5 444.3 742.2 444.2 743.3 443 743.2 441.3L742.5 426.8 751.3 434.8C752.4 435.8 754.1 435.7 755.2 434.6S756.2 431.7 755 430.6L742.1 419 741 398.8 771.6 426.4C772.8 427.5 774.4 427.4 775.5 426.2 776.6 425.1 776.5 423.4 775.3 422.3L740.6 391 738.5 349.6 775.4 368.5 789.3 411.5C790 413.2 791.7 413.6 793.4 413.6 795 412.9 795.5 411.2 795.4 409.5L782.8 370.9 800.6 380.1 806 397.2C806.6 398.9 808.3 399.3 810 399.3 811.7 398.6 812.1 396.9 812.1 395.8L808.1 384.2 821.4 390.8C822.5 391.3 824.8 391.2 825.2 389.5 825.7 387.8 825.6 386.1 823.9 385.7L810.7 379 822.3 375.1C823.9 374.4 824.4 372.7 824.3 371.6 823.7 370.5 822.5 369.5 821.4 369.5 821.4 369.5 820.8 369.5 820.8 369.5L803.7 374.9 785.9 365.7 824.5 353.1C826.1 352.5 826.6 350.7 826.6 349.6 825.9 348.5 824.8 347.5 823.7 347.5 823.7 347.5 823.1 347.6 823.1 347.6L779 362.1 742.1 343.3 776.9 320.8 822.2 330.8C824 331.3 825.6 330.1 825.5 328.4 826 326.7 824.8 325.1 823.1 325.1L783.4 316.5 800.2 305.6 817.8 309.1C819.5 309.6 821.1 308.4 821 306.7 821.5 305 820.3 303.4 818.6 303.5L806.7 300.7 819.2 292.8C820.3 292.2 820.7 289.9 820.1 288.8 819.5 287.8 818.3 287.2 817.2 287.3 816.7 287.3 816.1 287.4 815.6 287.9L803.1 295.9 805.8 284C806.3 282.3 805.1 280.6 803.4 280.7 803.4 280.7 802.9 280.7 802.9 280.7 801.8 280.8 800.7 282 800.2 283.1L796.6 300.7 779.8 311.6 788.4 271.9C788.9 270.2 787.7 268.6 786 268.7 786 268.7 785.4 268.7 785.4 268.7 784.3 268.8 783.3 270 782.8 271.1L772.7 316.5 738 339 735.9 297.6 767.2 262.9C768.3 261.8 768.2 260.1 767 259 765.8 258 764.2 258 763.1 259.2L735.5 289.2 734.4 269.1 746.1 256.2C747.2 255 747.1 253.3 745.9 252.2S743.1 251.3 742 252.4L734 261.3 733.3 246.7C733.2 245 732 244 730.4 244.1 728.7 244.1 727.6 245.3 727.7 247L728.4 261.5 719.6 253.6C719 253 718.5 252.5 717.3 252.6S715.7 253.2 715.2 253.8C714.1 255 714.2 256.7 715.4 257.7L728.3 269.4 729.3 289.5 698.7 261.9C698.2 261.4 697.6 260.9 696.5 260.9 695.9 261 694.8 261.6 694.3 262.2 693.2 263.3 693.3 265 694.5 266.1L729.1 297.4 731.3 338.8 694.4 319.9 679.8 275.8C679.2 274.7 678 273.6 676.9 273.7 676.9 273.7 676.4 273.7 676.4 273.7 674.7 274.4 674.2 276.1 674.3 277.2L686.9 315.8 669.1 306.6 663.7 289.5C663.1 288.4 661.9 287.4 660.8 287.4 660.8 287.4 660.2 287.4 660.2 287.4 658.6 288.1 658.1 289.8 658.2 290.9L662.1 302.5 648.9 295.9C648.3 295.9 647.7 295.4 647.2 295.4 646.1 295.4 645 296.1 644.5 297.2 644 298.9 644.1 300.6 645.8 301.1L659 307.7 647.4 311.6C645.8 312.3 645.3 314 645.4 315.1 646 316.8 647.7 317.2 648.8 317.2L666 311.8 683.8 321 645.2 333.6C643.5 334.3 643.1 336 643.1 337.1 644.9 338.7 646.6 339.7 648.3 339.1Z" fill="rgba(21, 139, 213, 1)"></path><path d="M409.1 520.6L418.6 517.3 417.6 524C417.4 524.7 417.9 525.6 418.9 525.9 419.8 525.9 420.6 525.3 420.8 524.7L422.3 515.9 431.2 512.9 427.9 530.7C427.7 531.8 428.3 532.7 429.2 532.6 430.1 533 431 532.4 431.1 531.3L434.7 511.7 442.6 508.8 457.5 521.4 456.3 528.8 436.2 535.6C436 535.9 435.8 536.1 435.6 536.4 435.4 536.6 435.2 537.3 435.3 537.8 435.6 538.9 436.5 539.2 437.4 538.7L455.7 532.4 454 541.4 444.7 544.9C444.5 544.7 444.3 545 444.1 545.2 443.7 545.7 443.5 546.4 443.8 547 444 547.7 445 548.1 445.9 548L453.4 545.1 451.4 556.4C451.2 557.1 451.7 558 452.6 558.3 453.5 558.3 454.4 557.7 454.6 557L456.4 546.5 461.6 550.8C462.3 551.4 463.4 551.1 463.8 550.6 464.4 549.9 464.6 548.7 463.8 548.1L457.2 542.5 459 533.5 472.7 545.1C473.4 545.7 474.3 545.7 474.9 544.9 475.5 544.2 475.5 543.3 474.7 542.7L459.6 529.8 460.8 522 479.3 515.5 484.9 520.3 481.4 540.3C481 541.2 481.7 542.3 482.6 542.2 483.6 542.6 484.2 541.9 484.6 540.9L487.8 522.7 494.9 528.7 493.2 537.7C493 538.4 493.8 539.5 494.5 539.7S496.2 539.1 496.6 538.1L497.9 531.2 506.4 538.5C507.1 539.1 508.2 538.8 508.9 538 509.3 537.5 509.4 536.4 508.7 535.8L500.1 528.5 507 525.9C507.6 525.6 508.2 524.9 507.9 523.8 507.6 523.1 506.4 522.6 505.8 522.8L497.2 526.1 490.1 520.1 507.5 513.8C508.4 513.3 509 512.6 508.7 511.5 508.4 510.8 507.2 510.2 506.6 510.5L487.2 517.6 481.6 512.8 485 493.5 492.5 491 507.6 503.8C508.4 504.5 509.3 504.4 509.9 503.7 510.5 502.9 510.6 501.8 509.9 501.2L496.2 489.6 504.8 486.4 511.4 492C512.1 492.6 513 492.5 513.7 491.8 514.3 491 514.2 490.1 513.5 489.5L508.3 485.2 518.5 481.6C519.2 481.3 519.7 480.1 519.5 479.5 518.9 478.6 518.2 478 517.3 478.5L506.7 482.1 508.1 474.5C508.1 473.6 507.5 472.7 506.9 472.6 506.2 472.4 505.5 472.7 505.1 473.2 505.1 473.2 504.9 473.4 504.9 473.9L503 483.6 494.4 486.8 497.6 467.7C498 466.7 497.4 465.9 496.3 465.7 495.8 465.8 495.4 465.8 495 466.3 494.8 466.5 494.6 466.8 494.4 467L490.9 488 483.8 490.4 468.9 477.8 470.5 469.5 489.2 462.7C490.3 462.4 490.7 461.4 490.2 460.6 490.1 459.7 489.2 459.3 488.1 459.6L471.1 465.8 472.6 456.6 481 453.6C481.6 453.3 482 452.4 481.9 451.5 481.4 450.6 480.7 450 479.8 450.5L473.4 452.6 475.1 442.7C475.5 441.8 474.7 441.2 473.8 440.8 473.3 440.8 472.7 441.1 472.3 441.6 472.3 441.6 472.1 441.9 471.9 442.1L470 452.7 463.9 447.5C463.4 447.1 462.3 447 461.7 447.7 461 448.4 461.4 449.5 461.8 450L469.4 456.4 467.9 465.6 453 453C452.3 452.3 451.2 452.7 450.5 453.4S450 455 450.7 455.7L467.1 469.5 465.7 477.1 447.1 483.6 440.8 478.3 444.6 458C444.5 457.1 444 456.2 443 455.8 442.6 455.9 441.9 456.2 441.5 456.6 441.3 456.9 441.1 457.1 441.1 457.6L437.9 475.8 430.8 469.8 432.3 460.6C432.5 459.9 431.9 459 431 458.6 430.1 458.7 429.2 459.2 429.1 459.9L427.9 467.3 420 460.7C419.6 460.3 418.2 460.4 417.8 460.9 417.2 461.6 417.3 463 417.8 463.4L425.6 470 418.7 472.1C418.5 472.4 418.3 472.6 418.1 472.9 417.7 473.4 417.5 474.1 417.6 474.5 418.1 475.4 419 475.8 419.9 475.7L428.5 472.5 435.6 478.5 418.2 484.7C417.1 485 416.7 485.9 417 486.6 417.3 487.7 418.2 488.1 419.1 488L438.5 481 444.9 486.3 441.5 505.7 434.2 508.3 417.8 494.5C417.1 493.9 416.2 493.9 415.6 494.7 415 495.4 415 496.3 415.8 496.9L430.7 509.5 421.8 512.5 414.3 506.1C413.8 505.7 412.4 505.8 411.8 506.6 411.2 507.3 411.5 508.4 412 508.8L418.1 514 407.9 517.5C407.7 517.8 407.7 517.8 407.5 518 407.1 518.5 407 519.2 407 519.7 407.5 520.5 408.5 520.9 409.1 520.6ZM447.8 488.8L448.3 486.7 450.1 486.1 465.1 480.8 466.8 480.2 468.3 481.4 480.3 491.6 481.7 492.8 481.4 494.7 478.6 510.3 478.3 512.2 476.4 513 461.6 518.1 459.6 518.9 458.1 517.7 446.2 507.6 444.7 506.3 445.2 504.2 447.8 488.8Z" fill="rgba(147, 86, 39, 1)"></path></g><defs><mask id="SvgjsMask1695"><rect width="1440" height="560" fill="#ffffff"></rect></mask><filter id="SvgjsFilter1696"><feGaussianBlur stdDeviation="1"></feGaussianBlur></filter></defs></svg>